<?xml version="1.0" standalone="no"?>
<svg id="climate-chart0" version="1.1" xmlns="http://www.w3.org/2000/svg" width="100%" viewBox="0 0 550 390" preserveAspectRatio="xMinYMin meet" class="svg-content-responsive" style="font-size: 1em; font-family: Arial, sans-serif; font-style: normal; font-variant: normal; font-weight: normal; text-rendering: optimizelegibility; background-color: white;"><defs><clipPath id="rect-bottom0"><rect x="40" y="85" width="466" height="254.1818181818182"/></clipPath><clipPath id="rect-top0"><rect x="40" y="85" width="466" height="0"/></clipPath></defs><g class="grid" transform="translate(0,339.1818181818182)" shape-rendering="crispEdges" style="fill: none; stroke: rgb(211, 211, 211);"><g class="tick" transform="translate(59.41666666666667,0)" style="opacity: 1; font-size: 0.9em;"><line y2="-254.1818181818182" x2="0"/><text dy=".71em" y="3" x="0" style="text-anchor: middle;"/></g><g class="tick" transform="translate(98.25,0)" style="opacity: 1; font-size: 0.9em;"><line y2="-254.1818181818182" x2="0"/><text dy=".71em" y="3" x="0" style="text-anchor: middle;"/></g><g class="tick" transform="translate(137.08333333333334,0)" style="opacity: 1; font-size: 0.9em;"><line y2="-254.1818181818182" x2="0"/><text dy=".71em" y="3" x="0" style="text-anchor: middle;"/></g><g class="tick" transform="translate(175.91666666666669,0)" style="opacity: 1; font-size: 0.9em;"><line y2="-254.1818181818182" x2="0"/><text dy=".71em" y="3" x="0" style="text-anchor: middle;"/></g><g class="tick" transform="translate(214.75,0)" style="opacity: 1; font-size: 0.9em;"><line y2="-254.1818181818182" x2="0"/><text dy=".71em" y="3" x="0" style="text-anchor: middle;"/></g><g class="tick" transform="translate(253.58333333333337,0)" style="opacity: 1; font-size: 0.9em;"><line y2="-254.1818181818182" x2="0"/><text dy=".71em" y="3" x="0" style="text-anchor: middle;"/></g><g class="tick" transform="translate(292.4166666666667,0)" style="opacity: 1; font-size: 0.9em;"><line y2="-254.1818181818182" x2="0"/><text dy=".71em" y="3" x="0" style="text-anchor: middle;"/></g><g class="tick" transform="translate(331.25000000000006,0)" style="opacity: 1; font-size: 0.9em;"><line y2="-254.1818181818182" x2="0"/><text dy=".71em" y="3" x="0" style="text-anchor: middle;"/></g><g class="tick" transform="translate(370.08333333333337,0)" style="opacity: 1; font-size: 0.9em;"><line y2="-254.1818181818182" x2="0"/><text dy=".71em" y="3" x="0" style="text-anchor: middle;"/></g><g class="tick" transform="translate(408.9166666666667,0)" style="opacity: 1; font-size: 0.9em;"><line y2="-254.1818181818182" x2="0"/><text dy=".71em" y="3" x="0" style="text-anchor: middle;"/></g><g class="tick" transform="translate(447.75000000000006,0)" style="opacity: 1; font-size: 0.9em;"><line y2="-254.1818181818182" x2="0"/><text dy=".71em" y="3" x="0" style="text-anchor: middle;"/></g><g class="tick" transform="translate(486.58333333333337,0)" style="opacity: 1; font-size: 0.9em;"><line y2="-254.1818181818182" x2="0"/><text dy=".71em" y="3" x="0" style="text-anchor: middle;"/></g><path class="domain" d="M40,-254.1818181818182V0H506V-254.1818181818182"/></g><g class="grid" transform="translate(40,0)" shape-rendering="crispEdges" style="fill: none; stroke: rgb(211, 211, 211);"><g class="tick" transform="translate(0,339.1818181818182)" style="opacity: 1; font-size: 0.9em;"><line x2="466" y2="0"/><text dy=".32em" x="-3" y="0" style="text-anchor: end;"/></g><g class="tick" transform="translate(0,296.81818181818187)" style="opacity: 1; font-size: 0.9em;"><line x2="466" y2="0"/><text dy=".32em" x="-3" y="0" style="text-anchor: end;"/></g><g class="tick" transform="translate(0,254.4545454545455)" style="opacity: 1; font-size: 0.9em;"><line x2="466" y2="0"/><text dy=".32em" x="-3" y="0" style="text-anchor: end;"/></g><g class="tick" transform="translate(0,212.0909090909091)" style="opacity: 1; font-size: 0.9em;"><line x2="466" y2="0"/><text dy=".32em" x="-3" y="0" style="text-anchor: end;"/></g><g class="tick" transform="translate(0,169.72727272727275)" style="opacity: 1; font-size: 0.9em;"><line x2="466" y2="0"/><text dy=".32em" x="-3" y="0" style="text-anchor: end;"/></g><g class="tick" transform="translate(0,127.36363636363636)" style="opacity: 1; font-size: 0.9em;"><line x2="466" y2="0"/><text dy=".32em" x="-3" y="0" style="text-anchor: end;"/></g><g class="tick" transform="translate(0,85)" style="opacity: 1; font-size: 0.9em;"><line x2="466" y2="0"/><text dy=".32em" x="-3" y="0" style="text-anchor: end;"/></g><path class="domain" d="M466,85H0V339.1818181818182H466"/></g><g id="bars0"><rect x="46.41666666666667" y="208.50482727272728" clip-path="url(#rect-bottom0)" width="26" height="88.31335454545459" fill="#5983d5" fill-opacity="0.8" stroke="#043db7" stroke-width="0" shape-rendering="crispEdges"/><rect x="85.25" y="228.71228181818185" clip-path="url(#rect-bottom0)" width="26" height="68.10590000000002" fill="#5983d5" fill-opacity="0.8" stroke="#043db7" stroke-width="0" shape-rendering="crispEdges"/><rect x="124.08333333333334" y="210.32646363636366" clip-path="url(#rect-bottom0)" width="26" height="86.49171818181821" fill="#5983d5" fill-opacity="0.8" stroke="#043db7" stroke-width="0" shape-rendering="crispEdges"/><rect x="162.91666666666669" y="227.54728181818183" clip-path="url(#rect-bottom0)" width="26" height="69.27090000000004" fill="#5983d5" fill-opacity="0.8" stroke="#043db7" stroke-width="0" shape-rendering="crispEdges"/><rect x="201.75" y="163.8027181818182" clip-path="url(#rect-bottom0)" width="26" height="133.01546363636368" fill="#5983d5" fill-opacity="0.8" stroke="#043db7" stroke-width="0" shape-rendering="crispEdges"/><rect x="240.58333333333337" y="152.49162727272727" clip-path="url(#rect-bottom0)" width="26" height="144.3265545454546" fill="#5983d5" fill-opacity="0.8" stroke="#043db7" stroke-width="0" shape-rendering="crispEdges"/><rect x="279.4166666666667" y="132.53835454545455" clip-path="url(#rect-bottom0)" width="26" height="164.27982727272732" fill="#5983d5" fill-opacity="0.8" stroke="#043db7" stroke-width="0" shape-rendering="crispEdges"/><rect x="318.25000000000006" y="155.04191818181818" clip-path="url(#rect-bottom0)" width="26" height="141.7762636363637" fill="#5983d5" fill-opacity="0.8" stroke="#043db7" stroke-width="0" shape-rendering="crispEdges"/><rect x="357.08333333333337" y="179.45608181818181" clip-path="url(#rect-bottom0)" width="26" height="117.36210000000005" fill="#5983d5" fill-opacity="0.8" stroke="#043db7" stroke-width="0" shape-rendering="crispEdges"/><rect x="395.9166666666667" y="205.68764545454542" clip-path="url(#rect-bottom0)" width="26" height="91.13053636363645" fill="#5983d5" fill-opacity="0.8" stroke="#043db7" stroke-width="0" shape-rendering="crispEdges"/><rect x="434.75000000000006" y="206.40782727272727" clip-path="url(#rect-bottom0)" width="26" height="90.4103545454546" fill="#5983d5" fill-opacity="0.8" stroke="#043db7" stroke-width="0" shape-rendering="crispEdges"/><rect x="473.58333333333337" y="193.0759909090909" clip-path="url(#rect-bottom0)" width="26" height="103.74219090909097" fill="#5983d5" fill-opacity="0.8" stroke="#043db7" stroke-width="0" shape-rendering="crispEdges"/></g><path id="tempLine0" class="line" d="M40,297.8433818181818L59.41666666666667,300.2792909090909L98.25,293.9925272727273L137.08333333333334,277.5130727272727L175.91666666666669,256.1490909090909L214.75,236.94565454545454L253.58333333333337,223.38929090909093L292.4166666666667,214.88690909090909L331.25000000000006,215.18345454545454L370.08333333333337,235.09436363636365L408.9166666666667,256.3482L447.75000000000006,278.00872727272724L486.58333333333337,295.4074727272727L506,297.8433818181818" fill="none" stroke="#e61414" stroke-width="1.5"/><g class="x axis" transform="translate(0, 339.1818181818182)"><g class="tick" transform="translate(59.41666666666667,0)" style="opacity: 1; font-size: 0.9em;"><line y2="5" x2="0" style="stroke: black;"/><text dy=".71em" y="10" x="0" style="text-anchor: middle;">Jan</text></g><g class="tick" transform="translate(98.25,0)" style="opacity: 1; font-size: 0.9em;"><line y2="5" x2="0" style="stroke: black;"/><text dy=".71em" y="10" x="0" style="text-anchor: middle;">Feb</text></g><g class="tick" transform="translate(137.08333333333334,0)" style="opacity: 1; font-size: 0.9em;"><line y2="5" x2="0" style="stroke: black;"/><text dy=".71em" y="10" x="0" style="text-anchor: middle;">Mar</text></g><g class="tick" transform="translate(175.91666666666669,0)" style="opacity: 1; font-size: 0.9em;"><line y2="5" x2="0" style="stroke: black;"/><text dy=".71em" y="10" x="0" style="text-anchor: middle;">Apr</text></g><g class="tick" transform="translate(214.75,0)" style="opacity: 1; font-size: 0.9em;"><line y2="5" x2="0" style="stroke: black;"/><text dy=".71em" y="10" x="0" style="text-anchor: middle;">May</text></g><g class="tick" transform="translate(253.58333333333337,0)" style="opacity: 1; font-size: 0.9em;"><line y2="5" x2="0" style="stroke: black;"/><text dy=".71em" y="10" x="0" style="text-anchor: middle;">Jun</text></g><g class="tick" transform="translate(292.4166666666667,0)" style="opacity: 1; font-size: 0.9em;"><line y2="5" x2="0" style="stroke: black;"/><text dy=".71em" y="10" x="0" style="text-anchor: middle;">Jul</text></g><g class="tick" transform="translate(331.25000000000006,0)" style="opacity: 1; font-size: 0.9em;"><line y2="5" x2="0" style="stroke: black;"/><text dy=".71em" y="10" x="0" style="text-anchor: middle;">Aug</text></g><g class="tick" transform="translate(370.08333333333337,0)" style="opacity: 1; font-size: 0.9em;"><line y2="5" x2="0" style="stroke: black;"/><text dy=".71em" y="10" x="0" style="text-anchor: middle;">Sep</text></g><g class="tick" transform="translate(408.9166666666667,0)" style="opacity: 1; font-size: 0.9em;"><line y2="5" x2="0" style="stroke: black;"/><text dy=".71em" y="10" x="0" style="text-anchor: middle;">Oct</text></g><g class="tick" transform="translate(447.75000000000006,0)" style="opacity: 1; font-size: 0.9em;"><line y2="5" x2="0" style="stroke: black;"/><text dy=".71em" y="10" x="0" style="text-anchor: middle;">Nov</text></g><g class="tick" transform="translate(486.58333333333337,0)" style="opacity: 1; font-size: 0.9em;"><line y2="5" x2="0" style="stroke: black;"/><text dy=".71em" y="10" x="0" style="text-anchor: middle;">Dec</text></g><path class="domain" d="M40,5V0H506V5" shape-rendering="crispEdges" style="fill: none; stroke: black; stroke-width: 2px;"/></g><g class="y axis" transform="translate(40,0)" style="fill: rgb(230, 20, 20);"><g class="tick" transform="translate(0,339.1818181818182)" style="opacity: 1; font-size: 0.9em;"><line x2="-5" y2="0" style="stroke: black;"/><text dy=".32em" x="-8" y="0" style="text-anchor: end;">-10</text></g><g class="tick" transform="translate(0,296.81818181818187)" style="opacity: 1; font-size: 0.9em;"><line x2="-5" y2="0" style="stroke: black;"/><text dy=".32em" x="-8" y="0" style="text-anchor: end;">0</text></g><g class="tick" transform="translate(0,254.4545454545455)" style="opacity: 1; font-size: 0.9em;"><line x2="-5" y2="0" style="stroke: black;"/><text dy=".32em" x="-8" y="0" style="text-anchor: end;">10</text></g><g class="tick" transform="translate(0,212.0909090909091)" style="opacity: 1; font-size: 0.9em;"><line x2="-5" y2="0" style="stroke: black;"/><text dy=".32em" x="-8" y="0" style="text-anchor: end;">20</text></g><g class="tick" transform="translate(0,169.72727272727275)" style="opacity: 1; font-size: 0.9em;"><line x2="-5" y2="0" style="stroke: black;"/><text dy=".32em" x="-8" y="0" style="text-anchor: end;">30</text></g><g class="tick" transform="translate(0,127.36363636363636)" style="opacity: 1; font-size: 0.9em;"><line x2="-5" y2="0" style="stroke: black;"/><text dy=".32em" x="-8" y="0" style="text-anchor: end;">40</text></g><g class="tick" transform="translate(0,85)" style="opacity: 1; font-size: 0.9em;"><line x2="-5" y2="0" style="stroke: black;"/><text dy=".32em" x="-8" y="0" style="text-anchor: end;">50</text></g><path class="domain" d="M-5,85H0V339.1818181818182H-5" shape-rendering="crispEdges" style="fill: none; stroke: black; stroke-width: 2px;"/></g><g class="y axis" transform="translate(40,0)" style="fill: rgb(230, 20, 20);"><path class="domain" d="M-5,85H0V85H-5" shape-rendering="crispEdges" style="fill: none; stroke: black; stroke-width: 2px;"/></g><g class="y axis" transform="translate(506, 0)" style="fill: rgb(4, 61, 183);"><g class="tick" transform="translate(0,296.81818181818187)" style="opacity: 1; font-size: 0.9em;"><line x2="5" y2="0" style="stroke: black;"/><text dy=".32em" x="8" y="0" style="text-anchor: start;">0</text></g><g class="tick" transform="translate(0,254.4545454545455)" style="opacity: 1; font-size: 0.9em;"><line x2="5" y2="0" style="stroke: black;"/><text dy=".32em" x="8" y="0" style="text-anchor: start;">20</text></g><g class="tick" transform="translate(0,212.0909090909091)" style="opacity: 1; font-size: 0.9em;"><line x2="5" y2="0" style="stroke: black;"/><text dy=".32em" x="8" y="0" style="text-anchor: start;">40</text></g><g class="tick" transform="translate(0,169.72727272727275)" style="opacity: 1; font-size: 0.9em;"><line x2="5" y2="0" style="stroke: black;"/><text dy=".32em" x="8" y="0" style="text-anchor: start;">60</text></g><g class="tick" transform="translate(0,127.36363636363636)" style="opacity: 1; font-size: 0.9em;"><line x2="5" y2="0" style="stroke: black;"/><text dy=".32em" x="8" y="0" style="text-anchor: start;">80</text></g><g class="tick" transform="translate(0,85)" style="opacity: 1; font-size: 0.9em;"><line x2="5" y2="0" style="stroke: black;"/><text dy=".32em" x="8" y="0" style="text-anchor: start;">100</text></g><path class="domain" d="M5,85H0V339.1818181818182H5" shape-rendering="crispEdges" style="fill: none; stroke: black; stroke-width: 2px;"/></g><g class="y axis" transform="translate(506, 0)" style="fill: rgb(4, 61, 183);"><path class="domain" d="M5,85H0V85H5" shape-rendering="crispEdges" style="fill: none; stroke: black; stroke-width: 2px;"/></g><text class="tick" text-anchor="start" x="40" y="75" fill="#e61414" style="font-size: 0.9em;">[°C]</text><text class="tick" text-anchor="end" x="506" y="75" fill="#043db7" style="font-size: 0.9em;">[mm]</text><path class="line" d="M40,296.81818181818187L506,296.81818181818187" stroke="#000000" stroke-width="1" shape-rendering="crispEdges"/><tspan id="month_c0" class="cell" x="578" y="95.83333333333333" style="text-align: right; font-size: 1.2em;">Jan</tspan><tspan id="month_c1" class="cell" x="578" y="116.66666666666666" style="text-align: right; font-size: 1.2em;">Feb</tspan><tspan id="month_c2" class="cell" x="578" y="137.5" style="text-align: right; font-size: 1.2em;">Mar</tspan><tspan id="month_c3" class="cell" x="578" y="158.33333333333331" style="text-align: right; font-size: 1.2em;">Apr</tspan><tspan id="month_c4" class="cell" x="578" y="179.16666666666666" style="text-align: right; font-size: 1.2em;">May</tspan><tspan id="month_c5" class="cell" x="578" y="200" style="text-align: right; font-size: 1.2em;">Jun</tspan><tspan id="month_c6" class="cell" x="578" y="220.83333333333331" style="text-align: right; font-size: 1.2em;">Jul</tspan><tspan id="month_c7" class="cell" x="578" y="241.66666666666666" style="text-align: right; font-size: 1.2em;">Aug</tspan><tspan id="month_c8" class="cell" x="578" y="262.5" style="text-align: right; font-size: 1.2em;">Sep</tspan><tspan id="month_c9" class="cell" x="578" y="283.3333333333333" style="text-align: right; font-size: 1.2em;">Oct</tspan><tspan id="month_c10" class="cell" x="578" y="304.16666666666663" style="text-align: right; font-size: 1.2em;">Nov</tspan><tspan id="month_c11" class="cell" x="578" y="325" style="text-align: right; font-size: 1.2em;">Dec</tspan></text></text><g class="focus" id="focus0" visibility="hidden"><circle id="c10" r="4" fill="white" stroke="#e61414" style="stroke-width: 2;"/><circle id="c20" r="4" fill="white" stroke="#043db7" style="stroke-width: 2;"/><rect id="r10" width="42.36363636363637" height="21.181818181818183" fill="none" style="fill-opacity: 0; stroke: rgb(230, 20, 20); stroke-width: 2;"/><rect id="r20" width="42.36363636363637" height="21.181818181818183" fill="none" style="fill-opacity: 0; stroke: rgb(4, 61, 183); stroke-width: 2;"/></g><rect id="climate-chart0-hover-area" pointer-events="all" x="40" y="75" width="466" height="270" fill="none" style="opacity: 0;"/><tspan x="10">Data Source: CRU Time Series v4.04</tspan><tspan x="10" dy="1em">https://catalogue.ceda.ac.uk/uuid/89e1e34ec3554dc98594a5732622bce9</tspan></text></svg>